<svg width="960" height="720" viewBox="0 0 960 720" fill="none" xmlns="http://www.w3.org/2000/svg">
  <rect width="960" height="720" rx="42" fill="#0E3B27"/>
  <rect x="70" y="74" width="820" height="572" rx="34" fill="#F5FFF8"/>
  <rect x="108" y="118" width="202" height="484" rx="24" fill="#E8FFF2"/>
  <rect x="336" y="118" width="516" height="138" rx="24" fill="#0F5E38"/>
  <rect x="336" y="282" width="516" height="138" rx="24" fill="#47B777"/>
  <rect x="336" y="446" width="516" height="156" rx="24" fill="#E8FFF2"/>
  <circle cx="182" cy="190" r="42" fill="#47B777"/>
  <path d="M154 280H248" stroke="#0F5E38" stroke-width="18" stroke-linecap="round"/>
  <path d="M154 324H232" stroke="#2E8F5B" stroke-width="18" stroke-linecap="round"/>
  <path d="M154 408H248" stroke="#0F5E38" stroke-width="18" stroke-linecap="round"/>
  <path d="M154 452H218" stroke="#2E8F5B" stroke-width="18" stroke-linecap="round"/>
  <circle cx="406" cy="186" r="26" fill="#A8E7BD"/>
  <path d="M458 170H760" stroke="#F5FFF8" stroke-width="18" stroke-linecap="round"/>
  <path d="M458 208H702" stroke="#DDF9E7" stroke-width="18" stroke-linecap="round"/>
  <circle cx="406" cy="350" r="26" fill="#E8FFF2"/>
  <path d="M458 334H760" stroke="#F5FFF8" stroke-width="18" stroke-linecap="round"/>
  <path d="M458 372H714" stroke="#DDF9E7" stroke-width="18" stroke-linecap="round"/>
  <circle cx="406" cy="514" r="26" fill="#47B777"/>
  <path d="M458 498H760" stroke="#0F5E38" stroke-width="18" stroke-linecap="round"/>
  <path d="M458 536H668" stroke="#2E8F5B" stroke-width="18" stroke-linecap="round"/>
</svg>
